<svg xmlns="http://www.w3.org/2000/svg" width="0" height="0"><defs><symbol id="dots-horizontal" fill="none" viewBox="0 0 15 15"><path fill="currentColor" fill-rule="evenodd" d="M3.625 7.5c0 .62132-.50368 1.125-1.125 1.125S1.375 8.12132 1.375 7.5 1.87868 6.375 2.5 6.375s1.125.50368 1.125 1.125m5 0c0 .62132-.50368 1.125-1.125 1.125S6.375 8.12132 6.375 7.5 6.87868 6.375 7.5 6.375s1.125.50368 1.125 1.125M12.5 8.625c.6213 0 1.125-.50368 1.125-1.125s-.5037-1.125-1.125-1.125-1.125.50368-1.125 1.125.5037 1.125 1.125 1.125" clip-rule="evenodd"/></symbol></defs></svg>